<svg width="112" height="112" viewBox="0 0 112 112" fill="none" xmlns="http://www.w3.org/2000/svg">
<rect width="112" height="112" rx="55.9999" fill="#FECDCA"/>
<path fill-rule="evenodd" clip-rule="evenodd" d="M69.7064 33.0898V33.7806C72.6143 34.0468 75.4982 34.3969 78.3555 34.8284C79.4134 34.9881 80.4676 35.1591 81.5181 35.341C82.7613 35.5564 83.5944 36.7387 83.3791 37.9818C83.1638 39.2249 81.9815 40.0581 80.7383 39.8427C80.5263 39.806 80.3142 39.7697 80.1019 39.7339L77.0395 79.5444C76.6733 84.305 72.7036 87.9811 67.929 87.9811H44.0714C39.2968 87.9811 35.3271 84.305 34.9609 79.5444L31.8985 39.7339C31.6862 39.7697 31.474 39.806 31.262 39.8427C30.0189 40.0581 28.8366 39.2249 28.6213 37.9818C28.406 36.7387 29.2391 35.5564 30.4822 35.341C31.5327 35.1591 32.587 34.9881 33.6449 34.8284C36.5022 34.3969 39.3861 34.0468 42.294 33.7806V33.0898C42.294 28.3247 45.9871 24.2569 50.8693 24.1008C52.573 24.0463 54.2834 24.0188 56.0002 24.0188C57.717 24.0188 59.4274 24.0463 61.1311 24.1008C66.0132 24.2569 69.7064 28.3247 69.7064 33.0898ZM51.0154 28.6672C52.6704 28.6142 54.3321 28.5875 56.0002 28.5875C57.6682 28.5875 59.33 28.6142 60.985 28.6672C63.2834 28.7407 65.1377 30.6707 65.1377 33.0898V33.4329C62.1151 33.2494 59.0684 33.1563 56.0002 33.1563C52.932 33.1563 49.8853 33.2494 46.8627 33.4329V33.0898C46.8627 30.6707 48.717 28.7407 51.0154 28.6672ZM49.9347 46.7747C49.8863 45.514 48.825 44.5313 47.5643 44.5798C46.3036 44.6283 45.3209 45.6896 45.3694 46.9503L46.4237 74.3627C46.4722 75.6234 47.5335 76.6061 48.7942 76.5576C50.0549 76.5091 51.0376 75.4478 50.9891 74.1871L49.9347 46.7747ZM66.6282 46.9503C66.6767 45.6896 65.694 44.6283 64.4333 44.5798C63.1726 44.5313 62.1113 45.514 62.0628 46.7747L61.0085 74.1871C60.96 75.4478 61.9427 76.5091 63.2034 76.5576C64.4641 76.6061 65.5254 75.6234 65.5739 74.3627L66.6282 46.9503Z" fill="#FF4F50"/>
</svg>
