<svg width="28" height="28" viewBox="0 0 28 28" fill="none" xmlns="http://www.w3.org/2000/svg">
<rect width="27.72" height="27.72" rx="6" fill="white"/>
<path d="M6.46135 22.2435C6.18429 22.243 5.92016 22.1263 5.73342 21.9215C5.54324 21.7186 5.44873 21.444 5.47365 21.1669L5.71564 18.5061L16.8944 7.3314L20.3878 10.8239L9.21207 21.9976L6.55123 22.2396C6.52061 22.2425 6.48999 22.2435 6.46135 22.2435ZM21.0851 10.1256L17.5927 6.63311L19.6876 4.53821C19.8728 4.35275 20.1242 4.24854 20.3863 4.24854C20.6485 4.24854 20.8998 4.35275 21.0851 4.53821L23.18 6.63311C23.3655 6.81837 23.4697 7.06975 23.4697 7.3319C23.4697 7.59404 23.3655 7.84543 23.18 8.03069L21.0861 10.1246L21.0851 10.1256Z" fill="#111111"/>
</svg>
