<svg width="27" height="21" viewBox="0 0 27 21" fill="none" xmlns="http://www.w3.org/2000/svg">
<path d="M10.9167 10.5001H8.33334V13.0834H5.75001V10.5001H3.16668V7.91675H5.75001V5.33341H8.33334V7.91675H10.9167V10.5001ZM19.9583 11.1459C19.9583 10.0738 19.0929 9.20841 18.0208 9.20841C16.9488 9.20841 16.0833 10.0738 16.0833 11.1459C16.0833 12.218 16.9488 13.0834 18.0208 13.0834C19.0929 13.0834 19.9583 12.218 19.9583 11.1459ZM23.8333 7.27091C23.8333 6.19883 22.9679 5.33341 21.8958 5.33341C20.8238 5.33341 19.9583 6.19883 19.9583 7.27091C19.9583 8.343 20.8238 9.20841 21.8958 9.20841C22.9679 9.20841 23.8333 8.343 23.8333 7.27091ZM19.9196 1.65216L14.1071 4.92008L13.4742 5.26883L12.8413 4.92008L7.02876 1.65216L1.87501 4.5455V12.8509L13.4742 19.3609L25.0733 12.8509V4.5455L19.9196 1.65216ZM19.9196 0.166748L26.365 3.78341V13.6001L13.4742 20.8334L0.583344 13.6001V3.78341L7.02876 0.166748L13.4742 3.78341L19.9196 0.166748Z" fill="white"/>
</svg>
