<svg width="16" height="17" viewBox="0 0 16 17" fill="none" xmlns="http://www.w3.org/2000/svg">
<path d="M13.9801 0.708374H12.0201C11.4401 0.708374 11.0134 0.963374 10.8201 1.41671C10.7134 1.62212 10.6667 1.86296 10.6667 2.14629V4.22879C10.6667 5.12837 11.1734 5.66671 12.0201 5.66671H13.9801C14.2467 5.66671 14.4734 5.61712 14.6667 5.50379C15.0934 5.29837 15.3334 4.84504 15.3334 4.22879V2.14629C15.3334 1.24671 14.8267 0.708374 13.9801 0.708374ZM14.6067 3.49212C14.5401 3.56296 14.4401 3.61254 14.3334 3.61962H13.3934V3.98087L13.4001 4.60421C13.3934 4.72462 13.3534 4.82379 13.2734 4.90879C13.2067 4.97962 13.1067 5.02921 13.0001 5.02921C12.7801 5.02921 12.6001 4.83796 12.6001 4.60421V3.61254L11.6667 3.61962C11.56 3.61777 11.4583 3.57142 11.3835 3.49059C11.3086 3.40976 11.2667 3.30092 11.2667 3.18754C11.2667 2.95379 11.4467 2.76254 11.6667 2.76254L12.2534 2.76962H12.6001V1.77796C12.6001 1.54421 12.7801 1.34587 13.0001 1.34587C13.2201 1.34587 13.4001 1.54421 13.4001 1.77796L13.3934 2.28087V2.76254H14.3334C14.5534 2.76254 14.7334 2.95379 14.7334 3.18754C14.7266 3.30184 14.6817 3.40983 14.6067 3.49212ZM6.00073 7.35325C6.42154 7.35325 6.82511 7.17564 7.12267 6.85948C7.42023 6.54332 7.5874 6.11453 7.5874 5.66742C7.5874 5.22031 7.42023 4.79151 7.12267 4.47535C6.82511 4.1592 6.42154 3.98158 6.00073 3.98158C5.57992 3.98158 5.17634 4.1592 4.87879 4.47535C4.58123 4.79151 4.41406 5.22031 4.41406 5.66742C4.41406 6.11453 4.58123 6.54332 4.87879 6.85948C5.17634 7.17564 5.57992 7.35325 6.00073 7.35325Z" fill="white"/>
<path d="M13.9802 5.66663H13.6668V8.93204L13.5802 8.85413C13.0602 8.37954 12.2202 8.37954 11.7002 8.85413L8.92683 11.3829C8.40683 11.8575 7.56683 11.8575 7.04683 11.3829L6.82016 11.1845C6.34683 10.7454 5.5935 10.7029 5.06016 11.0854L2.56683 12.8633C2.42016 12.4666 2.3335 12.0062 2.3335 11.4679V5.53204C2.3335 3.53454 3.32683 2.47913 5.20683 2.47913H10.6668V2.14621C10.6668 1.86288 10.7135 1.62204 10.8202 1.41663H5.20683C2.78016 1.41663 1.3335 2.95371 1.3335 5.53204V11.4679C1.3335 12.24 1.46016 12.9129 1.70683 13.4795C2.28016 14.8254 3.50683 15.5833 5.20683 15.5833H10.7935C13.2202 15.5833 14.6668 14.0462 14.6668 11.4679V5.50371C14.4735 5.61704 14.2468 5.66663 13.9802 5.66663Z" fill="white"/>
</svg>
