<?xml version="1.0" encoding="UTF-8" standalone="no"?>
<!DOCTYPE svg PUBLIC "-//W3C//DTD SVG 1.1//EN" "http://www.w3.org/Graphics/SVG/1.1/DTD/svg11.dtd">
<svg xmlns="http://www.w3.org/2000/svg" version="1.1" viewBox="0.00 0.00 100.00 100.00">
<path fill="#ffffff" width="16" height="16" d="
  M 62.06 43.20
  Q 61.52 45.07 63.46 45.02
  Q 71.01 44.82 77.65 45.01
  Q 83.21 45.17 86.35 48.91
  Q 88.85 51.89 87.67 57.29
  Q 85.34 67.98 83.17 77.35
  Q 82.62 79.77 81.81 82.28
  C 80.47 86.45 76.39 87.98 72.40 87.98
  Q 41.55 88.02 12.67 87.98
  Q 11.99 87.98 11.99 87.30
  L 12.02 46.50
  Q 12.02 45.02 13.50 45.02
  L 27.20 45.02
  A 2.90 2.89 -65.6 0 0 29.11 44.30
  Q 31.19 42.46 32.75 40.79
  Q 42.96 29.85 52.37 19.84
  Q 58.97 12.82 65.37 17.89
  Q 69.12 20.86 67.28 26.42
  Q 64.52 34.72 62.06 43.20
  Z
  M 28.9236 51.0909
  A 1.22 1.22 0.0 0 0 27.7079 49.8666
  L 18.2479 49.8336
  A 1.22 1.22 0.0 0 0 17.0237 51.0493
  L 16.9164 81.7891
  A 1.22 1.22 0.0 0 0 18.1321 83.0134
  L 27.5921 83.0464
  A 1.22 1.22 0.0 0 0 28.8163 81.8307
  L 28.9236 51.0909
  Z"
/>
</svg>
