<svg width="71" height="61" viewBox="0 0 71 61" fill="none" xmlns="http://www.w3.org/2000/svg">
<path d="M36.1376 35.2705C36.0121 35.1311 35.8302 35.0434 35.6279 35.0434C35.4265 35.0434 35.2452 35.1304 35.1198 35.2688L30.8573 39.5313C30.5894 39.7991 30.5894 40.2331 30.8573 40.501C31.1251 40.7688 31.5595 40.769 31.8271 40.501L36.1376 35.2705ZM36.1376 35.2705C36.2314 35.3746 36.2937 35.5077 36.3096 35.6546L40.2923 39.6373C40.5016 39.8466 40.5016 40.1857 40.2923 40.395L40.3986 40.5008C40.3985 40.5009 40.3984 40.501 40.3984 40.501C40.2644 40.6354 40.0883 40.7019 39.9135 40.7019C39.7384 40.7019 39.5624 40.6348 39.4286 40.501L36.3136 37.386V49.6577C36.3136 50.0368 36.0065 50.3435 35.6279 50.3435C35.2493 50.3435 34.9422 50.0364 34.9422 49.6577V37.3859L31.8272 40.5009L36.1376 35.2705ZM38.1249 15.152C39.2966 11.2153 42.9877 8.46512 47.1001 8.46512C52.2621 8.46512 56.462 12.6658 56.462 17.8279C56.462 18.2664 56.4296 18.7171 56.3653 19.166C56.3288 19.4193 56.4044 19.6756 56.5718 19.8688C56.7394 20.0622 56.9825 20.173 57.2382 20.173H57.3438C63.3128 20.173 68.1697 25.0299 68.1697 30.999C68.1697 36.968 63.3128 41.8249 57.3438 41.8249H53.7311C53.4817 31.8706 45.3068 23.85 35.2935 23.85C25.28 23.85 17.105 31.8711 16.8559 41.8255H13.4395C7.47044 41.8255 2.61353 36.9686 2.61353 30.9996C2.61353 25.0305 7.47044 20.1736 13.4395 20.1736H13.7327C14.2889 20.1736 14.7076 19.6635 14.5968 19.1163L14.5968 19.1162C13.7709 15.0478 14.8015 10.8742 17.4244 7.66546C23.4964 0.237711 35.0683 1.17207 39.9025 9.34342C38.2783 10.7231 37.0569 12.5597 36.435 14.6494C36.2958 15.1162 36.5618 15.6068 37.0283 15.7459C37.4968 15.8857 37.9869 15.6179 38.1249 15.152ZM13.4395 43.589H16.895C17.562 53.1568 25.5591 60.737 35.2935 60.737C45.0281 60.737 53.0252 53.1564 53.692 43.5884H57.3438C64.2856 43.5884 69.9329 37.9413 69.9329 30.999C69.9329 24.3472 64.7485 18.8847 58.2077 18.4396C58.5638 12.1122 53.5114 6.72516 47.1396 6.70251C47.1265 6.70193 47.1133 6.70164 47.1001 6.70164C46.4396 6.70164 45.7929 6.75911 45.1646 6.86925C43.7833 7.1114 42.491 7.60817 41.3369 8.30862C35.7797 -0.850742 22.8309 -1.73524 16.0589 6.54944L16.0589 6.54945C13.3222 9.89795 12.1216 14.1772 12.6939 18.4319C6.09762 18.8189 0.85 24.3078 0.85 30.9995C0.85 37.9413 6.49766 43.589 13.4395 43.589ZM18.6318 43.074C18.683 42.9623 18.7115 42.8381 18.7115 42.7072C18.7115 42.5617 18.6763 42.4244 18.6138 42.3034C18.6138 42.3001 18.6138 42.2968 18.6138 42.2935C18.6138 33.0966 26.0965 25.6138 35.2935 25.6138C44.4904 25.6138 51.9732 33.0964 51.9732 42.2935C51.9732 51.4904 44.4904 58.9732 35.2935 58.9732C26.3582 58.9732 19.0409 51.9102 18.6318 43.074Z" fill="#7966EA" stroke="#7966EA" stroke-width="0.3"/>
</svg>
