<?xml version="1.0" encoding="UTF-8" standalone="no"?>
<!DOCTYPE svg PUBLIC "-//W3C//DTD SVG 1.1//EN" "http://www.w3.org/Graphics/SVG/1.1/DTD/svg11.dtd">
<svg xmlns="http://www.w3.org/2000/svg" version="1.1" viewBox="0.00 0.00 56.00 56.00">
<path fill="#000000" d="
  M 25.90 41.54
  Q 28.73 39.26 31.71 36.77
  C 33.65 35.15 34.81 36.31 36.80 35.73
  C 41.82 34.25 44.26 28.73 41.25 24.25
  Q 38.90 20.77 34.11 20.76
  Q 22.81 20.73 13.46 20.81
  Q 11.00 20.83 8.87 22.45
  A 0.57 0.57 0.0 0 1 7.96 21.97
  Q 8.19 16.97 7.98 11.87
  Q 7.80 7.51 9.01 5.48
  C 10.63 2.76 15.01 2.18 17.59 3.79
  Q 32.60 13.19 47.95 22.55
  Q 50.37 24.03 51.34 25.71
  C 52.89 28.40 51.86 32.02 49.15 33.68
  Q 33.54 43.23 18.14 52.95
  Q 16.56 53.94 14.58 54.06
  C 9.88 54.34 7.79 50.96 7.97 46.65
  Q 8.13 42.74 8.06 39.02
  A 1.38 1.36 20.9 0 0 7.61 38.03
  C 4.48 35.20 4.88 31.74 5.03 27.85
  Q 5.07 26.59 5.67 25.71
  Q 6.25 24.84 6.22 25.89
  Q 6.19 26.92 6.06 28.00
  C 5.54 32.20 9.26 35.94 13.40 35.89
  Q 19.11 35.81 24.13 35.84
  Q 24.75 35.85 24.75 36.47
  L 24.75 40.98
  Q 24.74 42.46 25.90 41.54
  Z"
/>
<circle fill="#000000" cx="32.40" cy="25.10" r="1.94"/>
<path fill="#000000" d="
  M 17.90 30.81
  Q 17.88 31.75 17.53 32.64
  Q 17.35 33.11 16.87 33.26
  Q 15.31 33.75 14.20 32.51
  A 1.40 1.39 22.5 0 1 13.85 31.67
  L 13.80 30.76
  Q 13.75 29.92 12.95 30.16
  C 10.26 30.98 9.88 26.41 13.12 26.52
  Q 13.85 26.54 13.84 25.82
  C 13.77 22.57 18.18 22.66 17.89 25.90
  A 0.60 0.59 88.8 0 0 18.55 26.54
  Q 19.97 26.37 20.79 27.42
  A 1.72 1.72 0.0 0 1 19.44 30.20
  L 18.52 30.20
  Q 17.92 30.20 17.90 30.81
  Z"
/>
<circle fill="#000000" cx="28.97" cy="28.38" r="1.93"/>
<circle fill="#000000" cx="35.74" cy="28.39" r="1.90"/>
<circle fill="#000000" cx="32.34" cy="31.70" r="1.93"/>
</svg>
